<svg width="781" height="486" viewBox="0 0 781 486" fill="none" xmlns="http://www.w3.org/2000/svg">
<path d="M390.234 47.9564V444.772" stroke="#2E3ED0"/>
<path d="M142.929 344.158H637.068" stroke="#2E3ED0"/>
<path d="M267.252 17C267.252 7.61114 274.864 0 284.252 0H496.747C506.136 0 513.747 7.61116 513.747 17V63.4352C513.747 72.8241 506.136 80.4352 496.747 80.4352H284.252C274.864 80.4352 267.252 72.8241 267.252 63.4352V17Z" fill="white"/>
<path d="M342.219 32.2H349.299C351.075 32.2 352.651 32.552 354.027 33.256C355.403 33.96 356.467 34.952 357.219 36.232C357.987 37.496 358.371 38.952 358.371 40.6C358.371 42.248 357.987 43.712 357.219 44.992C356.467 46.256 355.403 47.24 354.027 47.944C352.651 48.648 351.075 49 349.299 49H342.219V32.2ZM349.155 46.912C350.515 46.912 351.707 46.648 352.731 46.12C353.771 45.592 354.571 44.856 355.131 43.912C355.691 42.952 355.971 41.848 355.971 40.6C355.971 39.352 355.691 38.256 355.131 37.312C354.571 36.352 353.771 35.608 352.731 35.08C351.707 34.552 350.515 34.288 349.155 34.288H344.619V46.912H349.155ZM361.711 36.28H364.015V49H361.711V36.28ZM362.863 33.832C362.415 33.832 362.039 33.688 361.735 33.4C361.447 33.112 361.303 32.76 361.303 32.344C361.303 31.928 361.447 31.576 361.735 31.288C362.039 30.984 362.415 30.832 362.863 30.832C363.311 30.832 363.679 30.976 363.967 31.264C364.271 31.536 364.423 31.88 364.423 32.296C364.423 32.728 364.271 33.096 363.967 33.4C363.679 33.688 363.311 33.832 362.863 33.832ZM370.622 38.416C371.022 37.68 371.614 37.12 372.398 36.736C373.182 36.352 374.134 36.16 375.254 36.16V38.392C375.126 38.376 374.95 38.368 374.726 38.368C373.478 38.368 372.494 38.744 371.774 39.496C371.07 40.232 370.718 41.288 370.718 42.664V49H368.414V36.28H370.622V38.416ZM389.473 42.712C389.473 42.888 389.457 43.12 389.425 43.408H379.105C379.249 44.528 379.737 45.432 380.569 46.12C381.417 46.792 382.465 47.128 383.713 47.128C385.233 47.128 386.457 46.616 387.385 45.592L388.657 47.08C388.081 47.752 387.361 48.264 386.497 48.616C385.649 48.968 384.697 49.144 383.641 49.144C382.297 49.144 381.105 48.872 380.065 48.328C379.025 47.768 378.217 46.992 377.641 46C377.081 45.008 376.801 43.888 376.801 42.64C376.801 41.408 377.073 40.296 377.617 39.304C378.177 38.312 378.937 37.544 379.897 37C380.873 36.44 381.969 36.16 383.185 36.16C384.401 36.16 385.481 36.44 386.425 37C387.385 37.544 388.129 38.312 388.657 39.304C389.201 40.296 389.473 41.432 389.473 42.712ZM383.185 38.104C382.081 38.104 381.153 38.44 380.401 39.112C379.665 39.784 379.233 40.664 379.105 41.752H387.265C387.137 40.68 386.697 39.808 385.945 39.136C385.209 38.448 384.289 38.104 383.185 38.104ZM397.616 43.072L394.976 45.52V49H392.672V31.192H394.976V42.616L401.912 36.28H404.696L399.344 41.536L405.224 49H402.392L397.616 43.072ZM414.613 48.256C414.277 48.544 413.861 48.768 413.365 48.928C412.869 49.072 412.357 49.144 411.829 49.144C410.549 49.144 409.557 48.8 408.853 48.112C408.149 47.424 407.797 46.44 407.797 45.16V38.176H405.637V36.28H407.797V33.496H410.101V36.28H413.749V38.176H410.101V45.064C410.101 45.752 410.269 46.28 410.605 46.648C410.957 47.016 411.453 47.2 412.093 47.2C412.797 47.2 413.397 47 413.893 46.6L414.613 48.256ZM429.255 36.28V49H427.071V47.08C426.607 47.736 425.991 48.248 425.223 48.616C424.471 48.968 423.647 49.144 422.751 49.144C421.055 49.144 419.719 48.68 418.743 47.752C417.767 46.808 417.279 45.424 417.279 43.6V36.28H419.583V43.336C419.583 44.568 419.879 45.504 420.471 46.144C421.063 46.768 421.911 47.08 423.015 47.08C424.231 47.08 425.191 46.712 425.895 45.976C426.599 45.24 426.951 44.2 426.951 42.856V36.28H429.255ZM435.849 38.416C436.249 37.68 436.841 37.12 437.625 36.736C438.409 36.352 439.361 36.16 440.481 36.16V38.392C440.353 38.376 440.177 38.368 439.953 38.368C438.705 38.368 437.721 38.744 437.001 39.496C436.297 40.232 435.945 41.288 435.945 42.664V49H433.641V36.28H435.849V38.416Z" fill="#2E3ED0"/>
<path d="M284.252 1H496.747V-1H284.252V1ZM512.747 17V63.4352H514.747V17H512.747ZM496.747 79.4352H284.252V81.4352H496.747V79.4352ZM268.252 63.4352V17H266.252V63.4352H268.252ZM284.252 79.4352C275.416 79.4352 268.252 72.2718 268.252 63.4352H266.252C266.252 73.3763 274.311 81.4352 284.252 81.4352V79.4352ZM512.747 63.4352C512.747 72.2718 505.584 79.4352 496.747 79.4352V81.4352C506.689 81.4352 514.747 73.3764 514.747 63.4352H512.747ZM496.747 1C505.584 1 512.747 8.16344 512.747 17H514.747C514.747 7.05888 506.689 -1 496.747 -1V1ZM284.252 -1C274.311 -1 266.252 7.05885 266.252 17H268.252C268.252 8.16343 275.416 1 284.252 1V-1Z" fill="#2E3ED0"/>
<path d="M267.252 118.193C267.252 108.804 274.864 101.193 284.252 101.193H496.747C506.136 101.193 513.747 108.804 513.747 118.193V164.628C513.747 174.017 506.136 181.628 496.747 181.628H284.252C274.864 181.628 267.252 174.017 267.252 164.628V118.193Z" fill="white"/>
<path d="M339.113 142.729L336.041 145.849V150.193H333.641V133.393H336.041V142.777L345.161 133.393H347.897L340.721 140.953L348.353 150.193H345.545L339.113 142.729ZM355.441 150.337C354.177 150.337 353.041 150.057 352.033 149.497C351.025 148.937 350.233 148.169 349.657 147.193C349.097 146.201 348.817 145.081 348.817 143.833C348.817 142.585 349.097 141.473 349.657 140.497C350.233 139.505 351.025 138.737 352.033 138.193C353.041 137.633 354.177 137.353 355.441 137.353C356.705 137.353 357.833 137.633 358.825 138.193C359.833 138.737 360.617 139.505 361.177 140.497C361.753 141.473 362.041 142.585 362.041 143.833C362.041 145.081 361.753 146.201 361.177 147.193C360.617 148.169 359.833 148.937 358.825 149.497C357.833 150.057 356.705 150.337 355.441 150.337ZM355.441 148.321C356.257 148.321 356.985 148.137 357.625 147.769C358.281 147.385 358.793 146.857 359.161 146.185C359.529 145.497 359.713 144.713 359.713 143.833C359.713 142.953 359.529 142.177 359.161 141.505C358.793 140.817 358.281 140.289 357.625 139.921C356.985 139.553 356.257 139.369 355.441 139.369C354.625 139.369 353.889 139.553 353.233 139.921C352.593 140.289 352.081 140.817 351.697 141.505C351.329 142.177 351.145 142.953 351.145 143.833C351.145 144.713 351.329 145.497 351.697 146.185C352.081 146.857 352.593 147.385 353.233 147.769C353.889 148.137 354.625 148.321 355.441 148.321ZM381.139 137.353C382.739 137.353 384.003 137.817 384.931 138.745C385.875 139.673 386.347 141.049 386.347 142.873V150.193H384.043V143.137C384.043 141.905 383.755 140.977 383.179 140.353C382.619 139.729 381.811 139.417 380.755 139.417C379.587 139.417 378.659 139.785 377.971 140.521C377.283 141.241 376.939 142.281 376.939 143.641V150.193H374.635V143.137C374.635 141.905 374.347 140.977 373.771 140.353C373.211 139.729 372.403 139.417 371.347 139.417C370.179 139.417 369.251 139.785 368.563 140.521C367.875 141.241 367.531 142.281 367.531 143.641V150.193H365.227V137.473H367.435V139.369C367.899 138.713 368.507 138.217 369.259 137.881C370.011 137.529 370.867 137.353 371.827 137.353C372.819 137.353 373.699 137.553 374.467 137.953C375.235 138.353 375.827 138.937 376.243 139.705C376.723 138.969 377.387 138.393 378.235 137.977C379.099 137.561 380.067 137.353 381.139 137.353ZM390.586 137.473H392.89V150.193H390.586V137.473ZM391.738 135.025C391.29 135.025 390.914 134.881 390.61 134.593C390.322 134.305 390.178 133.953 390.178 133.537C390.178 133.121 390.322 132.769 390.61 132.481C390.914 132.177 391.29 132.025 391.738 132.025C392.186 132.025 392.554 132.169 392.842 132.457C393.146 132.729 393.298 133.073 393.298 133.489C393.298 133.921 393.146 134.289 392.842 134.593C392.554 134.881 392.186 135.025 391.738 135.025ZM400.937 150.337C399.897 150.337 398.897 150.201 397.937 149.929C396.977 149.641 396.225 149.281 395.681 148.849L396.641 147.025C397.201 147.425 397.881 147.745 398.681 147.985C399.481 148.225 400.289 148.345 401.105 148.345C403.121 148.345 404.129 147.769 404.129 146.617C404.129 146.233 403.993 145.929 403.721 145.705C403.449 145.481 403.105 145.321 402.689 145.225C402.289 145.113 401.713 144.993 400.961 144.865C399.937 144.705 399.097 144.521 398.441 144.313C397.801 144.105 397.249 143.753 396.785 143.257C396.321 142.761 396.089 142.065 396.089 141.169C396.089 140.017 396.569 139.097 397.529 138.409C398.489 137.705 399.777 137.353 401.393 137.353C402.241 137.353 403.089 137.457 403.937 137.665C404.785 137.873 405.481 138.153 406.025 138.505L405.041 140.329C404.001 139.657 402.777 139.321 401.369 139.321C400.393 139.321 399.649 139.481 399.137 139.801C398.625 140.121 398.369 140.545 398.369 141.073C398.369 141.489 398.513 141.817 398.801 142.057C399.089 142.297 399.441 142.473 399.857 142.585C400.289 142.697 400.889 142.825 401.657 142.969C402.681 143.145 403.505 143.337 404.129 143.545C404.769 143.737 405.313 144.073 405.761 144.553C406.209 145.033 406.433 145.705 406.433 146.569C406.433 147.721 405.937 148.641 404.945 149.329C403.969 150.001 402.633 150.337 400.937 150.337ZM413.945 137.353C415.705 137.353 417.049 137.785 417.977 138.649C418.921 139.513 419.393 140.801 419.393 142.513V150.193H417.209V148.513C416.825 149.105 416.273 149.561 415.553 149.881C414.849 150.185 414.009 150.337 413.033 150.337C411.609 150.337 410.465 149.993 409.601 149.305C408.753 148.617 408.329 147.713 408.329 146.593C408.329 145.473 408.737 144.577 409.553 143.905C410.369 143.217 411.665 142.873 413.441 142.873H417.089V142.417C417.089 141.425 416.801 140.665 416.225 140.137C415.649 139.609 414.801 139.345 413.681 139.345C412.929 139.345 412.193 139.473 411.473 139.729C410.753 139.969 410.145 140.297 409.649 140.713L408.689 138.985C409.345 138.457 410.129 138.057 411.041 137.785C411.953 137.497 412.921 137.353 413.945 137.353ZM413.417 148.561C414.297 148.561 415.057 148.369 415.697 147.985C416.337 147.585 416.801 147.025 417.089 146.305V144.529H413.537C411.585 144.529 410.609 145.185 410.609 146.497C410.609 147.137 410.857 147.641 411.353 148.009C411.849 148.377 412.537 148.561 413.417 148.561ZM425.865 139.609C426.265 138.873 426.857 138.313 427.641 137.929C428.425 137.545 429.377 137.353 430.497 137.353V139.585C430.369 139.569 430.193 139.561 429.969 139.561C428.721 139.561 427.737 139.937 427.017 140.689C426.313 141.425 425.961 142.481 425.961 143.857V150.193H423.657V137.473H425.865V139.609ZM433.336 137.473H435.64V150.193H433.336V137.473ZM434.488 135.025C434.04 135.025 433.664 134.881 433.36 134.593C433.072 134.305 432.928 133.953 432.928 133.537C432.928 133.121 433.072 132.769 433.36 132.481C433.664 132.177 434.04 132.025 434.488 132.025C434.936 132.025 435.304 132.169 435.592 132.457C435.896 132.729 436.048 133.073 436.048 133.489C436.048 133.921 435.896 134.289 435.592 134.593C435.304 134.881 434.936 135.025 434.488 135.025ZM443.687 150.337C442.647 150.337 441.647 150.201 440.687 149.929C439.727 149.641 438.975 149.281 438.431 148.849L439.391 147.025C439.951 147.425 440.631 147.745 441.431 147.985C442.231 148.225 443.039 148.345 443.855 148.345C445.871 148.345 446.879 147.769 446.879 146.617C446.879 146.233 446.743 145.929 446.471 145.705C446.199 145.481 445.855 145.321 445.439 145.225C445.039 145.113 444.463 144.993 443.711 144.865C442.687 144.705 441.847 144.521 441.191 144.313C440.551 144.105 439.999 143.753 439.535 143.257C439.071 142.761 438.839 142.065 438.839 141.169C438.839 140.017 439.319 139.097 440.279 138.409C441.239 137.705 442.527 137.353 444.143 137.353C444.991 137.353 445.839 137.457 446.687 137.665C447.535 137.873 448.231 138.153 448.775 138.505L447.791 140.329C446.751 139.657 445.527 139.321 444.119 139.321C443.143 139.321 442.399 139.481 441.887 139.801C441.375 140.121 441.119 140.545 441.119 141.073C441.119 141.489 441.263 141.817 441.551 142.057C441.839 142.297 442.191 142.473 442.607 142.585C443.039 142.697 443.639 142.825 444.407 142.969C445.431 143.145 446.255 143.337 446.879 143.545C447.519 143.737 448.063 144.073 448.511 144.553C448.959 145.033 449.183 145.705 449.183 146.569C449.183 147.721 448.687 148.641 447.695 149.329C446.719 150.001 445.383 150.337 443.687 150.337Z" fill="#2E3ED0"/>
<path d="M284.252 102.193H496.747V100.193H284.252V102.193ZM512.747 118.193V164.628H514.747V118.193H512.747ZM496.747 180.628H284.252V182.628H496.747V180.628ZM268.252 164.628V118.193H266.252V164.628H268.252ZM284.252 180.628C275.416 180.628 268.252 173.465 268.252 164.628H266.252C266.252 174.569 274.311 182.628 284.252 182.628V180.628ZM512.747 164.628C512.747 173.465 505.584 180.628 496.747 180.628V182.628C506.689 182.628 514.747 174.569 514.747 164.628H512.747ZM496.747 102.193C505.584 102.193 512.747 109.356 512.747 118.193H514.747C514.747 108.252 506.689 100.193 496.747 100.193V102.193ZM284.252 100.193C274.311 100.193 266.252 108.252 266.252 118.193H268.252C268.252 109.356 275.416 102.193 284.252 102.193V100.193Z" fill="#2E3ED0"/>
<path d="M267.252 219.385C267.252 209.997 274.864 202.385 284.252 202.385H496.747C506.136 202.385 513.747 209.997 513.747 219.385V265.821C513.747 275.21 506.136 282.821 496.747 282.821H284.252C274.864 282.821 267.252 275.21 267.252 265.821V219.385Z" fill="white"/>
<path d="M354.033 236.385L354.009 224.145L347.937 234.345H346.833L340.761 224.217V236.385H338.457V219.585H340.425L347.433 231.393L354.345 219.585H356.313L356.337 236.385H354.033ZM365.675 223.545C367.435 223.545 368.779 223.977 369.707 224.841C370.651 225.705 371.123 226.993 371.123 228.705V236.385H368.939V234.705C368.555 235.297 368.003 235.753 367.283 236.073C366.579 236.377 365.739 236.529 364.763 236.529C363.339 236.529 362.195 236.185 361.331 235.497C360.483 234.809 360.059 233.905 360.059 232.785C360.059 231.665 360.467 230.769 361.283 230.097C362.099 229.409 363.395 229.065 365.171 229.065H368.819V228.609C368.819 227.617 368.531 226.857 367.955 226.329C367.379 225.801 366.531 225.537 365.411 225.537C364.659 225.537 363.923 225.665 363.203 225.921C362.483 226.161 361.875 226.489 361.379 226.905L360.419 225.177C361.075 224.649 361.859 224.249 362.771 223.977C363.683 223.689 364.651 223.545 365.675 223.545ZM365.147 234.753C366.027 234.753 366.787 234.561 367.427 234.177C368.067 233.777 368.531 233.217 368.819 232.497V230.721H365.267C363.315 230.721 362.339 231.377 362.339 232.689C362.339 233.329 362.587 233.833 363.083 234.201C363.579 234.569 364.267 234.753 365.147 234.753ZM382.179 223.545C383.795 223.545 385.075 224.017 386.019 224.961C386.979 225.889 387.459 227.257 387.459 229.065V236.385H385.155V229.329C385.155 228.097 384.859 227.169 384.267 226.545C383.675 225.921 382.827 225.609 381.723 225.609C380.475 225.609 379.491 225.977 378.771 226.713C378.051 227.433 377.691 228.473 377.691 229.833V236.385H375.387V223.665H377.595V225.585C378.059 224.929 378.683 224.425 379.467 224.073C380.267 223.721 381.171 223.545 382.179 223.545ZM396.355 223.545C398.115 223.545 399.459 223.977 400.387 224.841C401.331 225.705 401.803 226.993 401.803 228.705V236.385H399.619V234.705C399.235 235.297 398.683 235.753 397.963 236.073C397.259 236.377 396.419 236.529 395.443 236.529C394.019 236.529 392.875 236.185 392.011 235.497C391.163 234.809 390.739 233.905 390.739 232.785C390.739 231.665 391.147 230.769 391.963 230.097C392.779 229.409 394.075 229.065 395.851 229.065H399.499V228.609C399.499 227.617 399.211 226.857 398.635 226.329C398.059 225.801 397.211 225.537 396.091 225.537C395.339 225.537 394.603 225.665 393.883 225.921C393.163 226.161 392.555 226.489 392.059 226.905L391.099 225.177C391.755 224.649 392.539 224.249 393.451 223.977C394.363 223.689 395.331 223.545 396.355 223.545ZM395.827 234.753C396.707 234.753 397.467 234.561 398.107 234.177C398.747 233.777 399.211 233.217 399.499 232.497V230.721H395.947C393.995 230.721 393.019 231.377 393.019 232.689C393.019 233.329 393.267 233.833 393.763 234.201C394.259 234.569 394.947 234.753 395.827 234.753ZM418.305 223.665V234.657C418.305 236.881 417.753 238.521 416.649 239.577C415.545 240.649 413.897 241.185 411.705 241.185C410.505 241.185 409.361 241.017 408.273 240.681C407.185 240.361 406.305 239.897 405.633 239.289L406.737 237.513C407.329 238.025 408.057 238.425 408.921 238.713C409.801 239.017 410.705 239.169 411.633 239.169C413.121 239.169 414.217 238.817 414.921 238.113C415.641 237.409 416.001 236.337 416.001 234.897V233.889C415.457 234.545 414.785 235.041 413.985 235.377C413.201 235.697 412.345 235.857 411.417 235.857C410.201 235.857 409.097 235.601 408.105 235.089C407.129 234.561 406.361 233.833 405.801 232.905C405.241 231.961 404.961 230.889 404.961 229.689C404.961 228.489 405.241 227.425 405.801 226.497C406.361 225.553 407.129 224.825 408.105 224.313C409.097 223.801 410.201 223.545 411.417 223.545C412.377 223.545 413.265 223.721 414.081 224.073C414.913 224.425 415.593 224.945 416.121 225.633V223.665H418.305ZM411.681 233.841C412.513 233.841 413.257 233.665 413.913 233.313C414.585 232.961 415.105 232.473 415.473 231.849C415.857 231.209 416.049 230.489 416.049 229.689C416.049 228.457 415.641 227.465 414.825 226.713C414.009 225.945 412.961 225.561 411.681 225.561C410.385 225.561 409.329 225.945 408.513 226.713C407.697 227.465 407.289 228.457 407.289 229.689C407.289 230.489 407.473 231.209 407.841 231.849C408.225 232.473 408.745 232.961 409.401 233.313C410.073 233.665 410.833 233.841 411.681 233.841ZM434.203 230.097C434.203 230.273 434.187 230.505 434.155 230.793H423.835C423.979 231.913 424.467 232.817 425.299 233.505C426.147 234.177 427.195 234.513 428.443 234.513C429.963 234.513 431.187 234.001 432.115 232.977L433.387 234.465C432.811 235.137 432.091 235.649 431.227 236.001C430.379 236.353 429.427 236.529 428.371 236.529C427.027 236.529 425.835 236.257 424.795 235.713C423.755 235.153 422.947 234.377 422.371 233.385C421.811 232.393 421.531 231.273 421.531 230.025C421.531 228.793 421.803 227.681 422.347 226.689C422.907 225.697 423.667 224.929 424.627 224.385C425.603 223.825 426.699 223.545 427.915 223.545C429.131 223.545 430.211 223.825 431.155 224.385C432.115 224.929 432.859 225.697 433.387 226.689C433.931 227.681 434.203 228.817 434.203 230.097ZM427.915 225.489C426.811 225.489 425.883 225.825 425.131 226.497C424.395 227.169 423.963 228.049 423.835 229.137H431.995C431.867 228.065 431.427 227.193 430.675 226.521C429.939 225.833 429.019 225.489 427.915 225.489ZM439.611 225.801C440.011 225.065 440.603 224.505 441.387 224.121C442.171 223.737 443.123 223.545 444.243 223.545V225.777C444.115 225.761 443.939 225.753 443.715 225.753C442.467 225.753 441.483 226.129 440.763 226.881C440.059 227.617 439.707 228.673 439.707 230.049V236.385H437.403V223.665H439.611V225.801ZM327.327 265.577C325.631 265.577 324.103 265.209 322.743 264.473C321.383 263.721 320.311 262.689 319.527 261.377C318.759 260.065 318.375 258.601 318.375 256.985C318.375 255.369 318.759 253.905 319.527 252.593C320.311 251.281 321.383 250.257 322.743 249.521C324.103 248.769 325.631 248.393 327.327 248.393C329.007 248.393 330.527 248.769 331.887 249.521C333.247 250.257 334.311 251.281 335.079 252.593C335.847 253.889 336.231 255.353 336.231 256.985C336.231 258.617 335.847 260.089 335.079 261.401C334.311 262.697 333.247 263.721 331.887 264.473C330.527 265.209 329.007 265.577 327.327 265.577ZM327.327 263.441C328.559 263.441 329.663 263.161 330.639 262.601C331.631 262.041 332.407 261.273 332.967 260.297C333.543 259.305 333.831 258.201 333.831 256.985C333.831 255.769 333.543 254.673 332.967 253.697C332.407 252.705 331.631 251.929 330.639 251.369C329.663 250.809 328.559 250.529 327.327 250.529C326.095 250.529 324.975 250.809 323.967 251.369C322.975 251.929 322.191 252.705 321.615 253.697C321.055 254.673 320.775 255.769 320.775 256.985C320.775 258.201 321.055 259.305 321.615 260.297C322.191 261.273 322.975 262.041 323.967 262.601C324.975 263.161 326.095 263.441 327.327 263.441ZM346.307 252.545C347.539 252.545 348.643 252.817 349.619 253.361C350.595 253.905 351.355 254.665 351.899 255.641C352.459 256.617 352.739 257.745 352.739 259.025C352.739 260.305 352.459 261.441 351.899 262.433C351.355 263.409 350.595 264.169 349.619 264.713C348.643 265.257 347.539 265.529 346.307 265.529C345.395 265.529 344.555 265.353 343.787 265.001C343.035 264.649 342.395 264.137 341.867 263.465V270.041H339.563V252.665H341.771V254.681C342.283 253.977 342.931 253.449 343.715 253.097C344.499 252.729 345.363 252.545 346.307 252.545ZM346.115 263.513C346.931 263.513 347.659 263.329 348.299 262.961C348.955 262.577 349.467 262.049 349.835 261.377C350.219 260.689 350.411 259.905 350.411 259.025C350.411 258.145 350.219 257.369 349.835 256.697C349.467 256.009 348.955 255.481 348.299 255.113C347.659 254.745 346.931 254.561 346.115 254.561C345.315 254.561 344.587 254.753 343.931 255.137C343.291 255.505 342.779 256.025 342.395 256.697C342.027 257.369 341.843 258.145 341.843 259.025C341.843 259.905 342.027 260.689 342.395 261.377C342.763 262.049 343.275 262.577 343.931 262.961C344.587 263.329 345.315 263.513 346.115 263.513ZM367.418 259.097C367.418 259.273 367.402 259.505 367.37 259.793H357.05C357.194 260.913 357.682 261.817 358.514 262.505C359.362 263.177 360.41 263.513 361.658 263.513C363.178 263.513 364.402 263.001 365.33 261.977L366.602 263.465C366.026 264.137 365.306 264.649 364.442 265.001C363.594 265.353 362.642 265.529 361.586 265.529C360.242 265.529 359.05 265.257 358.01 264.713C356.97 264.153 356.162 263.377 355.586 262.385C355.026 261.393 354.746 260.273 354.746 259.025C354.746 257.793 355.018 256.681 355.562 255.689C356.122 254.697 356.882 253.929 357.842 253.385C358.818 252.825 359.914 252.545 361.13 252.545C362.346 252.545 363.426 252.825 364.37 253.385C365.33 253.929 366.074 254.697 366.602 255.689C367.146 256.681 367.418 257.817 367.418 259.097ZM361.13 254.489C360.026 254.489 359.098 254.825 358.346 255.497C357.61 256.169 357.178 257.049 357.05 258.137H365.21C365.082 257.065 364.642 256.193 363.89 255.521C363.154 254.833 362.234 254.489 361.13 254.489ZM372.826 254.801C373.226 254.065 373.818 253.505 374.602 253.121C375.386 252.737 376.338 252.545 377.458 252.545V254.777C377.33 254.761 377.154 254.753 376.93 254.753C375.682 254.753 374.698 255.129 373.978 255.881C373.274 256.617 372.922 257.673 372.922 259.049V265.385H370.618V252.665H372.826V254.801ZM384.906 252.545C386.666 252.545 388.01 252.977 388.938 253.841C389.882 254.705 390.354 255.993 390.354 257.705V265.385H388.17V263.705C387.786 264.297 387.234 264.753 386.514 265.073C385.81 265.377 384.97 265.529 383.994 265.529C382.57 265.529 381.426 265.185 380.562 264.497C379.714 263.809 379.29 262.905 379.29 261.785C379.29 260.665 379.698 259.769 380.514 259.097C381.33 258.409 382.626 258.065 384.402 258.065H388.05V257.609C388.05 256.617 387.762 255.857 387.186 255.329C386.61 254.801 385.762 254.537 384.642 254.537C383.89 254.537 383.154 254.665 382.434 254.921C381.714 255.161 381.106 255.489 380.61 255.905L379.65 254.177C380.306 253.649 381.09 253.249 382.002 252.977C382.914 252.689 383.882 252.545 384.906 252.545ZM384.378 263.753C385.258 263.753 386.018 263.561 386.658 263.177C387.298 262.777 387.762 262.217 388.05 261.497V259.721H384.498C382.546 259.721 381.57 260.377 381.57 261.689C381.57 262.329 381.818 262.833 382.314 263.201C382.81 263.569 383.498 263.753 384.378 263.753ZM398.266 265.529C397.226 265.529 396.226 265.393 395.266 265.121C394.306 264.833 393.554 264.473 393.01 264.041L393.97 262.217C394.53 262.617 395.21 262.937 396.01 263.177C396.81 263.417 397.618 263.537 398.434 263.537C400.45 263.537 401.458 262.961 401.458 261.809C401.458 261.425 401.322 261.121 401.05 260.897C400.778 260.673 400.434 260.513 400.018 260.417C399.618 260.305 399.042 260.185 398.29 260.057C397.266 259.897 396.426 259.713 395.77 259.505C395.13 259.297 394.578 258.945 394.114 258.449C393.65 257.953 393.418 257.257 393.418 256.361C393.418 255.209 393.898 254.289 394.858 253.601C395.818 252.897 397.106 252.545 398.722 252.545C399.57 252.545 400.418 252.649 401.266 252.857C402.114 253.065 402.81 253.345 403.354 253.697L402.37 255.521C401.33 254.849 400.106 254.513 398.698 254.513C397.722 254.513 396.978 254.673 396.466 254.993C395.954 255.313 395.698 255.737 395.698 256.265C395.698 256.681 395.842 257.009 396.13 257.249C396.418 257.489 396.77 257.665 397.186 257.777C397.618 257.889 398.218 258.017 398.986 258.161C400.01 258.337 400.834 258.529 401.458 258.737C402.098 258.929 402.642 259.265 403.09 259.745C403.538 260.225 403.762 260.897 403.762 261.761C403.762 262.913 403.266 263.833 402.274 264.521C401.298 265.193 399.962 265.529 398.266 265.529ZM406.641 252.665H408.945V265.385H406.641V252.665ZM407.793 250.217C407.345 250.217 406.969 250.073 406.665 249.785C406.377 249.497 406.233 249.145 406.233 248.729C406.233 248.313 406.377 247.961 406.665 247.673C406.969 247.369 407.345 247.217 407.793 247.217C408.241 247.217 408.609 247.361 408.897 247.649C409.201 247.921 409.353 248.265 409.353 248.681C409.353 249.113 409.201 249.481 408.897 249.785C408.609 250.073 408.241 250.217 407.793 250.217ZM418.792 265.529C417.528 265.529 416.392 265.249 415.384 264.689C414.376 264.129 413.584 263.361 413.008 262.385C412.448 261.393 412.168 260.273 412.168 259.025C412.168 257.777 412.448 256.665 413.008 255.689C413.584 254.697 414.376 253.929 415.384 253.385C416.392 252.825 417.528 252.545 418.792 252.545C420.056 252.545 421.184 252.825 422.176 253.385C423.184 253.929 423.968 254.697 424.528 255.689C425.104 256.665 425.392 257.777 425.392 259.025C425.392 260.273 425.104 261.393 424.528 262.385C423.968 263.361 423.184 264.129 422.176 264.689C421.184 265.249 420.056 265.529 418.792 265.529ZM418.792 263.513C419.608 263.513 420.336 263.329 420.976 262.961C421.632 262.577 422.144 262.049 422.512 261.377C422.88 260.689 423.064 259.905 423.064 259.025C423.064 258.145 422.88 257.369 422.512 256.697C422.144 256.009 421.632 255.481 420.976 255.113C420.336 254.745 419.608 254.561 418.792 254.561C417.976 254.561 417.24 254.745 416.584 255.113C415.944 255.481 415.432 256.009 415.048 256.697C414.68 257.369 414.496 258.145 414.496 259.025C414.496 259.905 414.68 260.689 415.048 261.377C415.432 262.049 415.944 262.577 416.584 262.961C417.24 263.329 417.976 263.513 418.792 263.513ZM435.37 252.545C436.986 252.545 438.266 253.017 439.21 253.961C440.17 254.889 440.65 256.257 440.65 258.065V265.385H438.346V258.329C438.346 257.097 438.05 256.169 437.458 255.545C436.866 254.921 436.018 254.609 434.914 254.609C433.666 254.609 432.682 254.977 431.962 255.713C431.242 256.433 430.882 257.473 430.882 258.833V265.385H428.578V252.665H430.786V254.585C431.25 253.929 431.874 253.425 432.658 253.073C433.458 252.721 434.362 252.545 435.37 252.545ZM449.546 252.545C451.306 252.545 452.65 252.977 453.578 253.841C454.522 254.705 454.994 255.993 454.994 257.705V265.385H452.81V263.705C452.426 264.297 451.874 264.753 451.154 265.073C450.45 265.377 449.61 265.529 448.634 265.529C447.21 265.529 446.066 265.185 445.202 264.497C444.354 263.809 443.93 262.905 443.93 261.785C443.93 260.665 444.338 259.769 445.154 259.097C445.97 258.409 447.266 258.065 449.042 258.065H452.69V257.609C452.69 256.617 452.402 255.857 451.826 255.329C451.25 254.801 450.402 254.537 449.282 254.537C448.53 254.537 447.794 254.665 447.074 254.921C446.354 255.161 445.746 255.489 445.25 255.905L444.29 254.177C444.946 253.649 445.73 253.249 446.642 252.977C447.554 252.689 448.522 252.545 449.546 252.545ZM449.018 263.753C449.898 263.753 450.658 263.561 451.298 263.177C451.938 262.777 452.402 262.217 452.69 261.497V259.721H449.138C447.186 259.721 446.21 260.377 446.21 261.689C446.21 262.329 446.458 262.833 446.954 263.201C447.45 263.569 448.138 263.753 449.018 263.753ZM459.258 247.577H461.562V265.385H459.258V247.577Z" fill="#2E3ED0"/>
<path d="M284.252 203.385H496.747V201.385H284.252V203.385ZM512.747 219.385V265.821H514.747V219.385H512.747ZM496.747 281.821H284.252V283.821H496.747V281.821ZM268.252 265.821V219.385H266.252V265.821H268.252ZM284.252 281.821C275.416 281.821 268.252 274.657 268.252 265.821H266.252C266.252 275.762 274.311 283.821 284.252 283.821V281.821ZM512.747 265.821C512.747 274.657 505.584 281.821 496.747 281.821V283.821C506.689 283.821 514.747 275.762 514.747 265.821H512.747ZM496.747 203.385C505.584 203.385 512.747 210.549 512.747 219.385H514.747C514.747 209.444 506.689 201.385 496.747 201.385V203.385ZM284.252 201.385C274.311 201.385 266.252 209.444 266.252 219.385H268.252C268.252 210.549 275.416 203.385 284.252 203.385V201.385Z" fill="#2E3ED0"/>
<path d="M267.252 320.578C267.252 311.189 274.864 303.578 284.252 303.578H496.747C506.136 303.578 513.747 311.189 513.747 320.578V367.013C513.747 376.402 506.136 384.013 496.747 384.013H284.252C274.864 384.013 267.252 376.402 267.252 367.013V320.578Z" fill="white"/>
<path d="M356.984 330.114L353.912 333.234V337.578H351.512V320.778H353.912V330.162L363.032 320.778H365.768L358.592 328.338L366.224 337.578H363.416L356.984 330.114ZM379.36 331.29C379.36 331.466 379.344 331.698 379.312 331.986H368.992C369.136 333.106 369.624 334.01 370.456 334.698C371.304 335.37 372.352 335.706 373.6 335.706C375.12 335.706 376.344 335.194 377.272 334.17L378.544 335.658C377.968 336.33 377.248 336.842 376.384 337.194C375.536 337.546 374.584 337.722 373.528 337.722C372.184 337.722 370.992 337.45 369.952 336.906C368.912 336.346 368.104 335.57 367.528 334.578C366.968 333.586 366.688 332.466 366.688 331.218C366.688 329.986 366.96 328.874 367.504 327.882C368.064 326.89 368.824 326.122 369.784 325.578C370.76 325.018 371.856 324.738 373.072 324.738C374.288 324.738 375.368 325.018 376.312 325.578C377.272 326.122 378.016 326.89 378.544 327.882C379.088 328.874 379.36 330.01 379.36 331.29ZM373.072 326.682C371.968 326.682 371.04 327.018 370.288 327.69C369.552 328.362 369.12 329.242 368.992 330.33H377.152C377.024 329.258 376.584 328.386 375.832 327.714C375.096 327.026 374.176 326.682 373.072 326.682ZM389.303 324.738C390.535 324.738 391.639 325.01 392.615 325.554C393.591 326.098 394.351 326.858 394.895 327.834C395.455 328.81 395.735 329.938 395.735 331.218C395.735 332.498 395.455 333.634 394.895 334.626C394.351 335.602 393.591 336.362 392.615 336.906C391.639 337.45 390.535 337.722 389.303 337.722C388.391 337.722 387.551 337.546 386.783 337.194C386.031 336.842 385.391 336.33 384.863 335.658V342.234H382.559V324.858H384.767V326.874C385.279 326.17 385.927 325.642 386.711 325.29C387.495 324.922 388.359 324.738 389.303 324.738ZM389.111 335.706C389.927 335.706 390.655 335.522 391.295 335.154C391.951 334.77 392.463 334.242 392.831 333.57C393.215 332.882 393.407 332.098 393.407 331.218C393.407 330.338 393.215 329.562 392.831 328.89C392.463 328.202 391.951 327.674 391.295 327.306C390.655 326.938 389.927 326.754 389.111 326.754C388.311 326.754 387.583 326.946 386.927 327.33C386.287 327.698 385.775 328.218 385.391 328.89C385.023 329.562 384.839 330.338 384.839 331.218C384.839 332.098 385.023 332.882 385.391 333.57C385.759 334.242 386.271 334.77 386.927 335.154C387.583 335.522 388.311 335.706 389.111 335.706ZM403.433 324.738C405.193 324.738 406.537 325.17 407.465 326.034C408.409 326.898 408.881 328.186 408.881 329.898V337.578H406.697V335.898C406.313 336.49 405.761 336.946 405.041 337.266C404.337 337.57 403.497 337.722 402.521 337.722C401.097 337.722 399.953 337.378 399.089 336.69C398.241 336.002 397.817 335.098 397.817 333.978C397.817 332.858 398.225 331.962 399.041 331.29C399.857 330.602 401.153 330.258 402.929 330.258H406.577V329.802C406.577 328.81 406.289 328.05 405.713 327.522C405.137 326.994 404.289 326.73 403.169 326.73C402.417 326.73 401.681 326.858 400.961 327.114C400.241 327.354 399.633 327.682 399.137 328.098L398.177 326.37C398.833 325.842 399.617 325.442 400.529 325.17C401.441 324.882 402.409 324.738 403.433 324.738ZM402.905 335.946C403.785 335.946 404.545 335.754 405.185 335.37C405.825 334.97 406.289 334.41 406.577 333.69V331.914H403.025C401.073 331.914 400.097 332.57 400.097 333.882C400.097 334.522 400.345 335.026 400.841 335.394C401.337 335.762 402.025 335.946 402.905 335.946ZM413.145 319.77H415.449V337.578H413.145V319.77ZM424.48 324.738C426.24 324.738 427.584 325.17 428.512 326.034C429.456 326.898 429.928 328.186 429.928 329.898V337.578H427.744V335.898C427.36 336.49 426.808 336.946 426.088 337.266C425.384 337.57 424.544 337.722 423.568 337.722C422.144 337.722 421 337.378 420.136 336.69C419.288 336.002 418.864 335.098 418.864 333.978C418.864 332.858 419.272 331.962 420.088 331.29C420.904 330.602 422.2 330.258 423.976 330.258H427.624V329.802C427.624 328.81 427.336 328.05 426.76 327.522C426.184 326.994 425.336 326.73 424.216 326.73C423.464 326.73 422.728 326.858 422.008 327.114C421.288 327.354 420.68 327.682 420.184 328.098L419.224 326.37C419.88 325.842 420.664 325.442 421.576 325.17C422.488 324.882 423.456 324.738 424.48 324.738ZM423.952 335.946C424.832 335.946 425.592 335.754 426.232 335.37C426.872 334.97 427.336 334.41 427.624 333.69V331.914H424.072C422.12 331.914 421.144 332.57 421.144 333.882C421.144 334.522 421.392 335.026 421.888 335.394C422.384 335.762 423.072 335.946 423.952 335.946ZM331.567 349.778H333.967V364.49H343.063V366.578H331.567V349.778ZM350.183 353.738C351.943 353.738 353.287 354.17 354.215 355.034C355.159 355.898 355.631 357.186 355.631 358.898V366.578H353.447V364.898C353.063 365.49 352.511 365.946 351.791 366.266C351.087 366.57 350.247 366.722 349.271 366.722C347.847 366.722 346.703 366.378 345.839 365.69C344.991 365.002 344.567 364.098 344.567 362.978C344.567 361.858 344.975 360.962 345.791 360.29C346.607 359.602 347.903 359.258 349.679 359.258H353.327V358.802C353.327 357.81 353.039 357.05 352.463 356.522C351.887 355.994 351.039 355.73 349.919 355.73C349.167 355.73 348.431 355.858 347.711 356.114C346.991 356.354 346.383 356.682 345.887 357.098L344.927 355.37C345.583 354.842 346.367 354.442 347.279 354.17C348.191 353.882 349.159 353.738 350.183 353.738ZM349.655 364.946C350.535 364.946 351.295 364.754 351.935 364.37C352.575 363.97 353.039 363.41 353.327 362.69V360.914H349.775C347.823 360.914 346.847 361.57 346.847 362.882C346.847 363.522 347.095 364.026 347.591 364.394C348.087 364.762 348.775 364.946 349.655 364.946ZM366.639 353.738C367.871 353.738 368.975 354.01 369.951 354.554C370.927 355.098 371.687 355.858 372.231 356.834C372.791 357.81 373.071 358.938 373.071 360.218C373.071 361.498 372.791 362.634 372.231 363.626C371.687 364.602 370.927 365.362 369.951 365.906C368.975 366.45 367.871 366.722 366.639 366.722C365.727 366.722 364.887 366.546 364.119 366.194C363.367 365.842 362.727 365.33 362.199 364.658V371.234H359.895V353.858H362.103V355.874C362.615 355.17 363.263 354.642 364.047 354.29C364.831 353.922 365.695 353.738 366.639 353.738ZM366.447 364.706C367.263 364.706 367.991 364.522 368.631 364.154C369.287 363.77 369.799 363.242 370.167 362.57C370.551 361.882 370.743 361.098 370.743 360.218C370.743 359.338 370.551 358.562 370.167 357.89C369.799 357.202 369.287 356.674 368.631 356.306C367.991 355.938 367.263 355.754 366.447 355.754C365.647 355.754 364.919 355.946 364.263 356.33C363.623 356.698 363.111 357.218 362.727 357.89C362.359 358.562 362.175 359.338 362.175 360.218C362.175 361.098 362.359 361.882 362.727 362.57C363.095 363.242 363.607 363.77 364.263 364.154C364.919 364.522 365.647 364.706 366.447 364.706ZM380.769 353.738C382.529 353.738 383.873 354.17 384.801 355.034C385.745 355.898 386.217 357.186 386.217 358.898V366.578H384.033V364.898C383.649 365.49 383.097 365.946 382.377 366.266C381.673 366.57 380.833 366.722 379.857 366.722C378.433 366.722 377.289 366.378 376.425 365.69C375.577 365.002 375.153 364.098 375.153 362.978C375.153 361.858 375.561 360.962 376.377 360.29C377.193 359.602 378.489 359.258 380.265 359.258H383.913V358.802C383.913 357.81 383.625 357.05 383.049 356.522C382.473 355.994 381.625 355.73 380.505 355.73C379.753 355.73 379.017 355.858 378.297 356.114C377.577 356.354 376.969 356.682 376.473 357.098L375.513 355.37C376.169 354.842 376.953 354.442 377.865 354.17C378.777 353.882 379.745 353.738 380.769 353.738ZM380.241 364.946C381.121 364.946 381.881 364.754 382.521 364.37C383.161 363.97 383.625 363.41 383.913 362.69V360.914H380.361C378.409 360.914 377.433 361.57 377.433 362.882C377.433 363.522 377.681 364.026 378.177 364.394C378.673 364.762 379.361 364.946 380.241 364.946ZM397.273 353.738C398.889 353.738 400.169 354.21 401.113 355.154C402.073 356.082 402.553 357.45 402.553 359.258V366.578H400.249V359.522C400.249 358.29 399.953 357.362 399.361 356.738C398.769 356.114 397.921 355.802 396.817 355.802C395.569 355.802 394.585 356.17 393.865 356.906C393.145 357.626 392.785 358.666 392.785 360.026V366.578H390.481V353.858H392.689V355.778C393.153 355.122 393.777 354.618 394.561 354.266C395.361 353.914 396.265 353.738 397.273 353.738ZM419.055 353.858V364.85C419.055 367.074 418.503 368.714 417.399 369.77C416.295 370.842 414.647 371.378 412.455 371.378C411.255 371.378 410.111 371.21 409.023 370.874C407.935 370.554 407.055 370.09 406.383 369.482L407.487 367.706C408.079 368.218 408.807 368.618 409.671 368.906C410.551 369.21 411.455 369.362 412.383 369.362C413.871 369.362 414.967 369.01 415.671 368.306C416.391 367.602 416.751 366.53 416.751 365.09V364.082C416.207 364.738 415.535 365.234 414.735 365.57C413.951 365.89 413.095 366.05 412.167 366.05C410.951 366.05 409.847 365.794 408.855 365.282C407.879 364.754 407.111 364.026 406.551 363.098C405.991 362.154 405.711 361.082 405.711 359.882C405.711 358.682 405.991 357.618 406.551 356.69C407.111 355.746 407.879 355.018 408.855 354.506C409.847 353.994 410.951 353.738 412.167 353.738C413.127 353.738 414.015 353.914 414.831 354.266C415.663 354.618 416.343 355.138 416.871 355.826V353.858H419.055ZM412.431 364.034C413.263 364.034 414.007 363.858 414.663 363.506C415.335 363.154 415.855 362.666 416.223 362.042C416.607 361.402 416.799 360.682 416.799 359.882C416.799 358.65 416.391 357.658 415.575 356.906C414.759 356.138 413.711 355.754 412.431 355.754C411.135 355.754 410.079 356.138 409.263 356.906C408.447 357.658 408.039 358.65 408.039 359.882C408.039 360.682 408.223 361.402 408.591 362.042C408.975 362.666 409.495 363.154 410.151 363.506C410.823 363.858 411.583 364.034 412.431 364.034ZM428.089 353.738C429.849 353.738 431.193 354.17 432.121 355.034C433.065 355.898 433.537 357.186 433.537 358.898V366.578H431.353V364.898C430.969 365.49 430.417 365.946 429.697 366.266C428.993 366.57 428.153 366.722 427.177 366.722C425.753 366.722 424.609 366.378 423.745 365.69C422.897 365.002 422.473 364.098 422.473 362.978C422.473 361.858 422.881 360.962 423.697 360.29C424.513 359.602 425.809 359.258 427.585 359.258H431.233V358.802C431.233 357.81 430.945 357.05 430.369 356.522C429.793 355.994 428.945 355.73 427.825 355.73C427.073 355.73 426.337 355.858 425.617 356.114C424.897 356.354 424.289 356.682 423.793 357.098L422.833 355.37C423.489 354.842 424.273 354.442 425.185 354.17C426.097 353.882 427.065 353.738 428.089 353.738ZM427.561 364.946C428.441 364.946 429.201 364.754 429.841 364.37C430.481 363.97 430.945 363.41 431.233 362.69V360.914H427.681C425.729 360.914 424.753 361.57 424.753 362.882C424.753 363.522 425.001 364.026 425.497 364.394C425.993 364.762 426.681 364.946 427.561 364.946ZM444.593 353.738C446.209 353.738 447.489 354.21 448.433 355.154C449.393 356.082 449.873 357.45 449.873 359.258V366.578H447.569V359.522C447.569 358.29 447.273 357.362 446.681 356.738C446.089 356.114 445.241 355.802 444.137 355.802C442.889 355.802 441.905 356.17 441.185 356.906C440.465 357.626 440.105 358.666 440.105 360.026V366.578H437.801V353.858H440.009V355.778C440.473 355.122 441.097 354.618 441.881 354.266C442.681 353.914 443.585 353.738 444.593 353.738Z" fill="#2E3ED0"/>
<path d="M284.252 304.578H496.747V302.578H284.252V304.578ZM512.747 320.578V367.013H514.747V320.578H512.747ZM496.747 383.013H284.252V385.013H496.747V383.013ZM268.252 367.013V320.578H266.252V367.013H268.252ZM284.252 383.013C275.416 383.013 268.252 375.85 268.252 367.013H266.252C266.252 376.954 274.311 385.013 284.252 385.013V383.013ZM512.747 367.013C512.747 375.85 505.584 383.013 496.747 383.013V385.013C506.689 385.013 514.747 376.954 514.747 367.013H512.747ZM496.747 304.578C505.584 304.578 512.747 311.742 512.747 320.578H514.747C514.747 310.637 506.689 302.578 496.747 302.578V304.578ZM284.252 302.578C274.311 302.578 266.252 310.637 266.252 320.578H268.252C268.252 311.742 275.416 304.578 284.252 304.578V302.578Z" fill="#2E3ED0"/>
<path d="M534.505 320.578C534.505 311.189 542.116 303.578 551.505 303.578H764C773.389 303.578 781 311.189 781 320.578V367.013C781 376.402 773.389 384.013 764 384.013H551.505C542.116 384.013 534.505 376.402 534.505 367.013V320.578Z" fill="white"/>
<path d="M629.867 348.378H620.939L619.091 352.578H616.619L624.227 335.778H626.603L634.235 352.578H631.715L629.867 348.378ZM629.027 346.458L625.403 338.226L621.779 346.458H629.027ZM648.288 334.77V352.578H646.08V350.562C645.568 351.266 644.92 351.802 644.136 352.17C643.352 352.538 642.488 352.722 641.544 352.722C640.312 352.722 639.208 352.45 638.232 351.906C637.256 351.362 636.488 350.602 635.928 349.626C635.384 348.634 635.112 347.498 635.112 346.218C635.112 344.938 635.384 343.81 635.928 342.834C636.488 341.858 637.256 341.098 638.232 340.554C639.208 340.01 640.312 339.738 641.544 339.738C642.456 339.738 643.296 339.914 644.064 340.266C644.832 340.602 645.472 341.106 645.984 341.778V334.77H648.288ZM641.736 350.706C642.536 350.706 643.264 350.522 643.92 350.154C644.576 349.77 645.088 349.242 645.456 348.57C645.824 347.882 646.008 347.098 646.008 346.218C646.008 345.338 645.824 344.562 645.456 343.89C645.088 343.202 644.576 342.674 643.92 342.306C643.264 341.938 642.536 341.754 641.736 341.754C640.92 341.754 640.184 341.938 639.528 342.306C638.888 342.674 638.376 343.202 637.992 343.89C637.624 344.562 637.44 345.338 637.44 346.218C637.44 347.098 637.624 347.882 637.992 348.57C638.376 349.242 638.888 349.77 639.528 350.154C640.184 350.522 640.92 350.706 641.736 350.706ZM668.559 339.738C670.159 339.738 671.423 340.202 672.351 341.13C673.295 342.058 673.767 343.434 673.767 345.258V352.578H671.463V345.522C671.463 344.29 671.175 343.362 670.599 342.738C670.039 342.114 669.231 341.802 668.175 341.802C667.007 341.802 666.079 342.17 665.391 342.906C664.703 343.626 664.359 344.666 664.359 346.026V352.578H662.055V345.522C662.055 344.29 661.767 343.362 661.191 342.738C660.631 342.114 659.823 341.802 658.767 341.802C657.599 341.802 656.671 342.17 655.983 342.906C655.295 343.626 654.951 344.666 654.951 346.026V352.578H652.647V339.858H654.855V341.754C655.319 341.098 655.927 340.602 656.679 340.266C657.431 339.914 658.287 339.738 659.247 339.738C660.239 339.738 661.119 339.938 661.887 340.338C662.655 340.738 663.247 341.322 663.663 342.09C664.143 341.354 664.807 340.778 665.655 340.362C666.519 339.946 667.487 339.738 668.559 339.738ZM678.007 339.858H680.311V352.578H678.007V339.858ZM679.159 337.41C678.711 337.41 678.335 337.266 678.031 336.978C677.743 336.69 677.599 336.338 677.599 335.922C677.599 335.506 677.743 335.154 678.031 334.866C678.335 334.562 678.711 334.41 679.159 334.41C679.607 334.41 679.975 334.554 680.263 334.842C680.567 335.114 680.719 335.458 680.719 335.874C680.719 336.306 680.567 336.674 680.263 336.978C679.975 337.266 679.607 337.41 679.159 337.41ZM691.502 339.738C693.118 339.738 694.398 340.21 695.342 341.154C696.302 342.082 696.782 343.45 696.782 345.258V352.578H694.478V345.522C694.478 344.29 694.182 343.362 693.59 342.738C692.998 342.114 692.15 341.802 691.046 341.802C689.798 341.802 688.814 342.17 688.094 342.906C687.374 343.626 687.014 344.666 687.014 346.026V352.578H684.71V339.858H686.918V341.778C687.382 341.122 688.006 340.618 688.79 340.266C689.59 339.914 690.494 339.738 691.502 339.738Z" fill="#2E3ED0"/>
<path d="M551.505 304.578H764V302.578H551.505V304.578ZM780 320.578V367.013H782V320.578H780ZM764 383.013H551.505V385.013H764V383.013ZM535.505 367.013V320.578H533.505V367.013H535.505ZM551.505 383.013C542.668 383.013 535.505 375.85 535.505 367.013H533.505C533.505 376.954 541.564 385.013 551.505 385.013V383.013ZM780 367.013C780 375.85 772.836 383.013 764 383.013V385.013C773.941 385.013 782 376.954 782 367.013H780ZM764 304.578C772.836 304.578 780 311.742 780 320.578H782C782 310.637 773.941 302.578 764 302.578V304.578ZM551.505 302.578C541.564 302.578 533.505 310.637 533.505 320.578H535.505C535.505 311.742 542.668 304.578 551.505 304.578V302.578Z" fill="#2E3ED0"/>
<path d="M0 320.578C0 311.189 7.61116 303.578 17 303.578H229.495C238.884 303.578 246.495 311.189 246.495 320.578V367.013C246.495 376.402 238.884 384.013 229.495 384.013H17C7.61115 384.013 0 376.402 0 367.013V320.578Z" fill="white"/>
<path d="M68.427 345.114L65.355 348.234V352.578H62.955V335.778H65.355V345.162L74.475 335.778H77.211L70.035 343.338L77.667 352.578H74.859L68.427 345.114ZM90.8025 346.29C90.8025 346.466 90.7865 346.698 90.7545 346.986H80.4345C80.5785 348.106 81.0665 349.01 81.8985 349.698C82.7465 350.37 83.7945 350.706 85.0425 350.706C86.5625 350.706 87.7865 350.194 88.7145 349.17L89.9865 350.658C89.4105 351.33 88.6905 351.842 87.8265 352.194C86.9785 352.546 86.0265 352.722 84.9705 352.722C83.6265 352.722 82.4345 352.45 81.3945 351.906C80.3545 351.346 79.5465 350.57 78.9705 349.578C78.4105 348.586 78.1305 347.466 78.1305 346.218C78.1305 344.986 78.4025 343.874 78.9465 342.882C79.5065 341.89 80.2665 341.122 81.2265 340.578C82.2025 340.018 83.2985 339.738 84.5145 339.738C85.7305 339.738 86.8105 340.018 87.7545 340.578C88.7145 341.122 89.4585 341.89 89.9865 342.882C90.5305 343.874 90.8025 345.01 90.8025 346.29ZM84.5145 341.682C83.4105 341.682 82.4825 342.018 81.7305 342.69C80.9945 343.362 80.5625 344.242 80.4345 345.33H88.5945C88.4665 344.258 88.0265 343.386 87.2745 342.714C86.5385 342.026 85.6185 341.682 84.5145 341.682ZM105.858 339.858V352.578H103.674V350.658C103.21 351.314 102.594 351.826 101.826 352.194C101.074 352.546 100.25 352.722 99.3538 352.722C97.6578 352.722 96.3218 352.258 95.3458 351.33C94.3698 350.386 93.8818 349.002 93.8818 347.178V339.858H96.1858V346.914C96.1858 348.146 96.4818 349.082 97.0738 349.722C97.6658 350.346 98.5138 350.658 99.6178 350.658C100.834 350.658 101.794 350.29 102.498 349.554C103.202 348.818 103.554 347.778 103.554 346.434V339.858H105.858ZM114.876 339.738C116.636 339.738 117.98 340.17 118.908 341.034C119.852 341.898 120.324 343.186 120.324 344.898V352.578H118.14V350.898C117.756 351.49 117.204 351.946 116.484 352.266C115.78 352.57 114.94 352.722 113.964 352.722C112.54 352.722 111.396 352.378 110.532 351.69C109.684 351.002 109.26 350.098 109.26 348.978C109.26 347.858 109.668 346.962 110.484 346.29C111.3 345.602 112.596 345.258 114.372 345.258H118.02V344.802C118.02 343.81 117.732 343.05 117.156 342.522C116.58 341.994 115.732 341.73 114.612 341.73C113.86 341.73 113.124 341.858 112.404 342.114C111.684 342.354 111.076 342.682 110.58 343.098L109.62 341.37C110.276 340.842 111.06 340.442 111.972 340.17C112.884 339.882 113.852 339.738 114.876 339.738ZM114.348 350.946C115.228 350.946 115.988 350.754 116.628 350.37C117.268 349.97 117.732 349.41 118.02 348.69V346.914H114.468C112.516 346.914 111.54 347.57 111.54 348.882C111.54 349.522 111.788 350.026 112.284 350.394C112.78 350.762 113.468 350.946 114.348 350.946ZM131.38 339.738C132.996 339.738 134.276 340.21 135.22 341.154C136.18 342.082 136.66 343.45 136.66 345.258V352.578H134.356V345.522C134.356 344.29 134.06 343.362 133.468 342.738C132.876 342.114 132.028 341.802 130.924 341.802C129.676 341.802 128.692 342.17 127.972 342.906C127.252 343.626 126.892 344.666 126.892 346.026V352.578H124.588V339.858H126.796V341.778C127.26 341.122 127.884 340.618 128.668 340.266C129.468 339.914 130.372 339.738 131.38 339.738ZM153.162 339.858V350.85C153.162 353.074 152.61 354.714 151.506 355.77C150.402 356.842 148.754 357.378 146.562 357.378C145.362 357.378 144.218 357.21 143.13 356.874C142.042 356.554 141.162 356.09 140.49 355.482L141.594 353.706C142.186 354.218 142.914 354.618 143.778 354.906C144.658 355.21 145.562 355.362 146.49 355.362C147.978 355.362 149.074 355.01 149.778 354.306C150.498 353.602 150.858 352.53 150.858 351.09V350.082C150.314 350.738 149.642 351.234 148.842 351.57C148.058 351.89 147.202 352.05 146.274 352.05C145.058 352.05 143.954 351.794 142.962 351.282C141.986 350.754 141.218 350.026 140.658 349.098C140.098 348.154 139.818 347.082 139.818 345.882C139.818 344.682 140.098 343.618 140.658 342.69C141.218 341.746 141.986 341.018 142.962 340.506C143.954 339.994 145.058 339.738 146.274 339.738C147.234 339.738 148.122 339.914 148.938 340.266C149.77 340.618 150.45 341.138 150.978 341.826V339.858H153.162ZM146.538 350.034C147.37 350.034 148.114 349.858 148.77 349.506C149.442 349.154 149.962 348.666 150.33 348.042C150.714 347.402 150.906 346.682 150.906 345.882C150.906 344.65 150.498 343.658 149.682 342.906C148.866 342.138 147.818 341.754 146.538 341.754C145.242 341.754 144.186 342.138 143.37 342.906C142.554 343.658 142.146 344.65 142.146 345.882C142.146 346.682 142.33 347.402 142.698 348.042C143.082 348.666 143.602 349.154 144.258 349.506C144.93 349.858 145.69 350.034 146.538 350.034ZM162.196 339.738C163.956 339.738 165.3 340.17 166.228 341.034C167.172 341.898 167.644 343.186 167.644 344.898V352.578H165.46V350.898C165.076 351.49 164.524 351.946 163.804 352.266C163.1 352.57 162.26 352.722 161.284 352.722C159.86 352.722 158.716 352.378 157.852 351.69C157.004 351.002 156.58 350.098 156.58 348.978C156.58 347.858 156.988 346.962 157.804 346.29C158.62 345.602 159.916 345.258 161.692 345.258H165.34V344.802C165.34 343.81 165.052 343.05 164.476 342.522C163.9 341.994 163.052 341.73 161.932 341.73C161.18 341.73 160.444 341.858 159.724 342.114C159.004 342.354 158.396 342.682 157.9 343.098L156.94 341.37C157.596 340.842 158.38 340.442 159.292 340.17C160.204 339.882 161.172 339.738 162.196 339.738ZM161.668 350.946C162.548 350.946 163.308 350.754 163.948 350.37C164.588 349.97 165.052 349.41 165.34 348.69V346.914H161.788C159.836 346.914 158.86 347.57 158.86 348.882C158.86 349.522 159.108 350.026 159.604 350.394C160.1 350.762 160.788 350.946 161.668 350.946ZM178.7 339.738C180.316 339.738 181.596 340.21 182.54 341.154C183.5 342.082 183.98 343.45 183.98 345.258V352.578H181.676V345.522C181.676 344.29 181.38 343.362 180.788 342.738C180.196 342.114 179.348 341.802 178.244 341.802C176.996 341.802 176.012 342.17 175.292 342.906C174.572 343.626 174.212 344.666 174.212 346.026V352.578H171.908V339.858H174.116V341.778C174.58 341.122 175.204 340.618 175.988 340.266C176.788 339.914 177.692 339.738 178.7 339.738Z" fill="#2E3ED0"/>
<path d="M17 304.578H229.495V302.578H17V304.578ZM245.495 320.578V367.013H247.495V320.578H245.495ZM229.495 383.013H17V385.013H229.495V383.013ZM1 367.013V320.578H-1V367.013H1ZM17 383.013C8.16343 383.013 1 375.85 1 367.013H-1C-1 376.954 7.05886 385.013 17 385.013V383.013ZM245.495 367.013C245.495 375.85 238.332 383.013 229.495 383.013V385.013C239.436 385.013 247.495 376.954 247.495 367.013H245.495ZM229.495 304.578C238.332 304.578 245.495 311.742 245.495 320.578H247.495C247.495 310.637 239.436 302.578 229.495 302.578V304.578ZM17 302.578C7.05888 302.578 -1 310.637 -1 320.578H1C1 311.742 8.16344 304.578 17 304.578V302.578Z" fill="#2E3ED0"/>
<path d="M267.252 421.771C267.252 412.382 274.864 404.771 284.252 404.771H496.747C506.136 404.771 513.747 412.382 513.747 421.771V468.206C513.747 477.595 506.136 485.206 496.747 485.206H284.252C274.864 485.206 267.252 477.595 267.252 468.206V421.771Z" fill="white"/>
<path d="M337.463 421.971C339.639 421.971 341.351 422.491 342.599 423.531C343.847 424.571 344.471 426.003 344.471 427.827C344.471 429.651 343.847 431.083 342.599 432.123C341.351 433.163 339.639 433.683 337.463 433.683H333.311V438.771H330.911V421.971H337.463ZM337.391 431.595C338.911 431.595 340.071 431.275 340.871 430.635C341.671 429.979 342.071 429.043 342.071 427.827C342.071 426.611 341.671 425.683 340.871 425.043C340.071 424.387 338.911 424.059 337.391 424.059H333.311V431.595H337.391ZM359.11 432.483C359.11 432.659 359.094 432.891 359.062 433.179H348.742C348.886 434.299 349.374 435.203 350.206 435.891C351.054 436.563 352.102 436.899 353.35 436.899C354.87 436.899 356.094 436.387 357.022 435.363L358.294 436.851C357.718 437.523 356.998 438.035 356.134 438.387C355.286 438.739 354.334 438.915 353.278 438.915C351.934 438.915 350.742 438.643 349.702 438.099C348.662 437.539 347.854 436.763 347.278 435.771C346.718 434.779 346.438 433.659 346.438 432.411C346.438 431.179 346.71 430.067 347.254 429.075C347.814 428.083 348.574 427.315 349.534 426.771C350.51 426.211 351.606 425.931 352.822 425.931C354.038 425.931 355.118 426.211 356.062 426.771C357.022 427.315 357.766 428.083 358.294 429.075C358.838 430.067 359.11 431.203 359.11 432.483ZM352.822 427.875C351.718 427.875 350.79 428.211 350.038 428.883C349.302 429.555 348.87 430.435 348.742 431.523H356.902C356.774 430.451 356.334 429.579 355.582 428.907C354.846 428.219 353.926 427.875 352.822 427.875ZM362.309 420.963H364.613V438.771H362.309V420.963ZM373.644 425.931C375.404 425.931 376.748 426.363 377.676 427.227C378.62 428.091 379.092 429.379 379.092 431.091V438.771H376.908V437.091C376.524 437.683 375.972 438.139 375.252 438.459C374.548 438.763 373.708 438.915 372.732 438.915C371.308 438.915 370.164 438.571 369.3 437.883C368.452 437.195 368.028 436.291 368.028 435.171C368.028 434.051 368.436 433.155 369.252 432.483C370.068 431.795 371.364 431.451 373.14 431.451H376.788V430.995C376.788 430.003 376.5 429.243 375.924 428.715C375.348 428.187 374.5 427.923 373.38 427.923C372.628 427.923 371.892 428.051 371.172 428.307C370.452 428.547 369.844 428.875 369.348 429.291L368.388 427.563C369.044 427.035 369.828 426.635 370.74 426.363C371.652 426.075 372.62 425.931 373.644 425.931ZM373.116 437.139C373.996 437.139 374.756 436.947 375.396 436.563C376.036 436.163 376.5 435.603 376.788 434.883V433.107H373.236C371.284 433.107 370.308 433.763 370.308 435.075C370.308 435.715 370.556 436.219 371.052 436.587C371.548 436.955 372.236 437.139 373.116 437.139ZM388.3 432.843L385.66 435.291V438.771H383.356V420.963H385.66V432.387L392.596 426.051H395.38L390.028 431.307L395.908 438.771H393.076L388.3 432.843ZM401.394 438.915C400.354 438.915 399.354 438.779 398.394 438.507C397.434 438.219 396.682 437.859 396.138 437.427L397.098 435.603C397.658 436.003 398.338 436.323 399.138 436.563C399.938 436.803 400.746 436.923 401.562 436.923C403.578 436.923 404.586 436.347 404.586 435.195C404.586 434.811 404.45 434.507 404.178 434.283C403.906 434.059 403.562 433.899 403.146 433.803C402.746 433.691 402.17 433.571 401.418 433.443C400.394 433.283 399.554 433.099 398.898 432.891C398.258 432.683 397.706 432.331 397.242 431.835C396.778 431.339 396.546 430.643 396.546 429.747C396.546 428.595 397.026 427.675 397.986 426.987C398.946 426.283 400.234 425.931 401.85 425.931C402.698 425.931 403.546 426.035 404.394 426.243C405.242 426.451 405.938 426.731 406.482 427.083L405.498 428.907C404.458 428.235 403.234 427.899 401.826 427.899C400.85 427.899 400.106 428.059 399.594 428.379C399.082 428.699 398.826 429.123 398.826 429.651C398.826 430.067 398.97 430.395 399.258 430.635C399.546 430.875 399.898 431.051 400.314 431.163C400.746 431.275 401.346 431.403 402.114 431.547C403.138 431.723 403.962 431.915 404.586 432.123C405.226 432.315 405.77 432.651 406.218 433.131C406.666 433.611 406.89 434.283 406.89 435.147C406.89 436.299 406.394 437.219 405.402 437.907C404.426 438.579 403.09 438.915 401.394 438.915ZM414.402 425.931C416.162 425.931 417.506 426.363 418.434 427.227C419.378 428.091 419.85 429.379 419.85 431.091V438.771H417.666V437.091C417.282 437.683 416.73 438.139 416.01 438.459C415.306 438.763 414.466 438.915 413.49 438.915C412.066 438.915 410.922 438.571 410.058 437.883C409.21 437.195 408.786 436.291 408.786 435.171C408.786 434.051 409.194 433.155 410.01 432.483C410.826 431.795 412.122 431.451 413.898 431.451H417.546V430.995C417.546 430.003 417.258 429.243 416.682 428.715C416.106 428.187 415.258 427.923 414.138 427.923C413.386 427.923 412.65 428.051 411.93 428.307C411.21 428.547 410.602 428.875 410.106 429.291L409.146 427.563C409.802 427.035 410.586 426.635 411.498 426.363C412.41 426.075 413.378 425.931 414.402 425.931ZM413.874 437.139C414.754 437.139 415.514 436.947 416.154 436.563C416.794 436.163 417.258 435.603 417.546 434.883V433.107H413.994C412.042 433.107 411.066 433.763 411.066 435.075C411.066 435.715 411.314 436.219 411.81 436.587C412.306 436.955 412.994 437.139 413.874 437.139ZM430.906 425.931C432.522 425.931 433.802 426.403 434.746 427.347C435.706 428.275 436.186 429.643 436.186 431.451V438.771H433.882V431.715C433.882 430.483 433.586 429.555 432.994 428.931C432.402 428.307 431.554 427.995 430.45 427.995C429.202 427.995 428.218 428.363 427.498 429.099C426.778 429.819 426.418 430.859 426.418 432.219V438.771H424.114V426.051H426.322V427.971C426.786 427.315 427.41 426.811 428.194 426.459C428.994 426.107 429.898 425.931 430.906 425.931ZM445.082 425.931C446.842 425.931 448.186 426.363 449.114 427.227C450.058 428.091 450.53 429.379 450.53 431.091V438.771H448.346V437.091C447.962 437.683 447.41 438.139 446.69 438.459C445.986 438.763 445.146 438.915 444.17 438.915C442.746 438.915 441.602 438.571 440.738 437.883C439.89 437.195 439.466 436.291 439.466 435.171C439.466 434.051 439.874 433.155 440.69 432.483C441.506 431.795 442.802 431.451 444.578 431.451H448.226V430.995C448.226 430.003 447.938 429.243 447.362 428.715C446.786 428.187 445.938 427.923 444.818 427.923C444.066 427.923 443.33 428.051 442.61 428.307C441.89 428.547 441.282 428.875 440.786 429.291L439.826 427.563C440.482 427.035 441.266 426.635 442.178 426.363C443.09 426.075 444.058 425.931 445.082 425.931ZM444.554 437.139C445.434 437.139 446.194 436.947 446.834 436.563C447.474 436.163 447.938 435.603 448.226 434.883V433.107H444.674C442.722 433.107 441.746 433.763 441.746 435.075C441.746 435.715 441.994 436.219 442.49 436.587C442.986 436.955 443.674 437.139 444.554 437.139ZM331.567 450.971H333.967V465.683H343.063V467.771H331.567V450.971ZM350.183 454.931C351.943 454.931 353.287 455.363 354.215 456.227C355.159 457.091 355.631 458.379 355.631 460.091V467.771H353.447V466.091C353.063 466.683 352.511 467.139 351.791 467.459C351.087 467.763 350.247 467.915 349.271 467.915C347.847 467.915 346.703 467.571 345.839 466.883C344.991 466.195 344.567 465.291 344.567 464.171C344.567 463.051 344.975 462.155 345.791 461.483C346.607 460.795 347.903 460.451 349.679 460.451H353.327V459.995C353.327 459.003 353.039 458.243 352.463 457.715C351.887 457.187 351.039 456.923 349.919 456.923C349.167 456.923 348.431 457.051 347.711 457.307C346.991 457.547 346.383 457.875 345.887 458.291L344.927 456.563C345.583 456.035 346.367 455.635 347.279 455.363C348.191 455.075 349.159 454.931 350.183 454.931ZM349.655 466.139C350.535 466.139 351.295 465.947 351.935 465.563C352.575 465.163 353.039 464.603 353.327 463.883V462.107H349.775C347.823 462.107 346.847 462.763 346.847 464.075C346.847 464.715 347.095 465.219 347.591 465.587C348.087 465.955 348.775 466.139 349.655 466.139ZM366.639 454.931C367.871 454.931 368.975 455.203 369.951 455.747C370.927 456.291 371.687 457.051 372.231 458.027C372.791 459.003 373.071 460.131 373.071 461.411C373.071 462.691 372.791 463.827 372.231 464.819C371.687 465.795 370.927 466.555 369.951 467.099C368.975 467.643 367.871 467.915 366.639 467.915C365.727 467.915 364.887 467.739 364.119 467.387C363.367 467.035 362.727 466.523 362.199 465.851V472.427H359.895V455.051H362.103V457.067C362.615 456.363 363.263 455.835 364.047 455.483C364.831 455.115 365.695 454.931 366.639 454.931ZM366.447 465.899C367.263 465.899 367.991 465.715 368.631 465.347C369.287 464.963 369.799 464.435 370.167 463.763C370.551 463.075 370.743 462.291 370.743 461.411C370.743 460.531 370.551 459.755 370.167 459.083C369.799 458.395 369.287 457.867 368.631 457.499C367.991 457.131 367.263 456.947 366.447 456.947C365.647 456.947 364.919 457.139 364.263 457.523C363.623 457.891 363.111 458.411 362.727 459.083C362.359 459.755 362.175 460.531 362.175 461.411C362.175 462.291 362.359 463.075 362.727 463.763C363.095 464.435 363.607 464.963 364.263 465.347C364.919 465.715 365.647 465.899 366.447 465.899ZM380.769 454.931C382.529 454.931 383.873 455.363 384.801 456.227C385.745 457.091 386.217 458.379 386.217 460.091V467.771H384.033V466.091C383.649 466.683 383.097 467.139 382.377 467.459C381.673 467.763 380.833 467.915 379.857 467.915C378.433 467.915 377.289 467.571 376.425 466.883C375.577 466.195 375.153 465.291 375.153 464.171C375.153 463.051 375.561 462.155 376.377 461.483C377.193 460.795 378.489 460.451 380.265 460.451H383.913V459.995C383.913 459.003 383.625 458.243 383.049 457.715C382.473 457.187 381.625 456.923 380.505 456.923C379.753 456.923 379.017 457.051 378.297 457.307C377.577 457.547 376.969 457.875 376.473 458.291L375.513 456.563C376.169 456.035 376.953 455.635 377.865 455.363C378.777 455.075 379.745 454.931 380.769 454.931ZM380.241 466.139C381.121 466.139 381.881 465.947 382.521 465.563C383.161 465.163 383.625 464.603 383.913 463.883V462.107H380.361C378.409 462.107 377.433 462.763 377.433 464.075C377.433 464.715 377.681 465.219 378.177 465.587C378.673 465.955 379.361 466.139 380.241 466.139ZM397.273 454.931C398.889 454.931 400.169 455.403 401.113 456.347C402.073 457.275 402.553 458.643 402.553 460.451V467.771H400.249V460.715C400.249 459.483 399.953 458.555 399.361 457.931C398.769 457.307 397.921 456.995 396.817 456.995C395.569 456.995 394.585 457.363 393.865 458.099C393.145 458.819 392.785 459.859 392.785 461.219V467.771H390.481V455.051H392.689V456.971C393.153 456.315 393.777 455.811 394.561 455.459C395.361 455.107 396.265 454.931 397.273 454.931ZM419.055 455.051V466.043C419.055 468.267 418.503 469.907 417.399 470.963C416.295 472.035 414.647 472.571 412.455 472.571C411.255 472.571 410.111 472.403 409.023 472.067C407.935 471.747 407.055 471.283 406.383 470.675L407.487 468.899C408.079 469.411 408.807 469.811 409.671 470.099C410.551 470.403 411.455 470.555 412.383 470.555C413.871 470.555 414.967 470.203 415.671 469.499C416.391 468.795 416.751 467.723 416.751 466.283V465.275C416.207 465.931 415.535 466.427 414.735 466.763C413.951 467.083 413.095 467.243 412.167 467.243C410.951 467.243 409.847 466.987 408.855 466.475C407.879 465.947 407.111 465.219 406.551 464.291C405.991 463.347 405.711 462.275 405.711 461.075C405.711 459.875 405.991 458.811 406.551 457.883C407.111 456.939 407.879 456.211 408.855 455.699C409.847 455.187 410.951 454.931 412.167 454.931C413.127 454.931 414.015 455.107 414.831 455.459C415.663 455.811 416.343 456.331 416.871 457.019V455.051H419.055ZM412.431 465.227C413.263 465.227 414.007 465.051 414.663 464.699C415.335 464.347 415.855 463.859 416.223 463.235C416.607 462.595 416.799 461.875 416.799 461.075C416.799 459.843 416.391 458.851 415.575 458.099C414.759 457.331 413.711 456.947 412.431 456.947C411.135 456.947 410.079 457.331 409.263 458.099C408.447 458.851 408.039 459.843 408.039 461.075C408.039 461.875 408.223 462.595 408.591 463.235C408.975 463.859 409.495 464.347 410.151 464.699C410.823 465.051 411.583 465.227 412.431 465.227ZM428.089 454.931C429.849 454.931 431.193 455.363 432.121 456.227C433.065 457.091 433.537 458.379 433.537 460.091V467.771H431.353V466.091C430.969 466.683 430.417 467.139 429.697 467.459C428.993 467.763 428.153 467.915 427.177 467.915C425.753 467.915 424.609 467.571 423.745 466.883C422.897 466.195 422.473 465.291 422.473 464.171C422.473 463.051 422.881 462.155 423.697 461.483C424.513 460.795 425.809 460.451 427.585 460.451H431.233V459.995C431.233 459.003 430.945 458.243 430.369 457.715C429.793 457.187 428.945 456.923 427.825 456.923C427.073 456.923 426.337 457.051 425.617 457.307C424.897 457.547 424.289 457.875 423.793 458.291L422.833 456.563C423.489 456.035 424.273 455.635 425.185 455.363C426.097 455.075 427.065 454.931 428.089 454.931ZM427.561 466.139C428.441 466.139 429.201 465.947 429.841 465.563C430.481 465.163 430.945 464.603 431.233 463.883V462.107H427.681C425.729 462.107 424.753 462.763 424.753 464.075C424.753 464.715 425.001 465.219 425.497 465.587C425.993 465.955 426.681 466.139 427.561 466.139ZM444.593 454.931C446.209 454.931 447.489 455.403 448.433 456.347C449.393 457.275 449.873 458.643 449.873 460.451V467.771H447.569V460.715C447.569 459.483 447.273 458.555 446.681 457.931C446.089 457.307 445.241 456.995 444.137 456.995C442.889 456.995 441.905 457.363 441.185 458.099C440.465 458.819 440.105 459.859 440.105 461.219V467.771H437.801V455.051H440.009V456.971C440.473 456.315 441.097 455.811 441.881 455.459C442.681 455.107 443.585 454.931 444.593 454.931Z" fill="#2E3ED0"/>
<path d="M284.252 405.771H496.747V403.771H284.252V405.771ZM512.747 421.771V468.206H514.747V421.771H512.747ZM496.747 484.206H284.252V486.206H496.747V484.206ZM268.252 468.206V421.771H266.252V468.206H268.252ZM284.252 484.206C275.416 484.206 268.252 477.043 268.252 468.206H266.252C266.252 478.147 274.311 486.206 284.252 486.206V484.206ZM512.747 468.206C512.747 477.043 505.584 484.206 496.747 484.206V486.206C506.689 486.206 514.747 478.147 514.747 468.206H512.747ZM496.747 405.771C505.584 405.771 512.747 412.934 512.747 421.771H514.747C514.747 411.83 506.689 403.771 496.747 403.771V405.771ZM284.252 403.771C274.311 403.771 266.252 411.83 266.252 421.771H268.252C268.252 412.934 275.416 405.771 284.252 405.771V403.771Z" fill="#2E3ED0"/>
</svg>
